<svg width="32" height="32" viewBox="0 0 32 32" fill="none" xmlns="http://www.w3.org/2000/svg">
  <!-- Background circle -->
  <circle cx="16" cy="16" r="15" fill="#2563eb"/>
  
  <!-- Letter S -->
  <path d="M8 11c0-1 1-2 3-2h4c2 0 3 1 3 2s-1 2-3 2h-4c-2 0-3 1-3 2s1 2 3 2h4c2 0 3 1 3 2s-1 2-3 2h-4c-2 0-3-1-3-2" 
        stroke="white" stroke-width="1.5" stroke-linecap="round" fill="none"/>
  
  <!-- Letter N -->
  <path d="M20 10v12m0-12l4 8v-8m4 0v12" 
        stroke="white" stroke-width="1.2" stroke-linecap="round"/>
</svg>