<svg width="64" height="64" viewBox="0 0 64 64" fill="none" xmlns="http://www.w3.org/2000/svg">
  <!-- Background circle -->
  <circle cx="32" cy="32" r="30" fill="#2563eb" stroke="#1d4ed8" stroke-width="2"/>
  
  <!-- Letter S -->
  <path d="M20 22c0-2 2-4 6-4h8c4 0 6 2 6 4s-2 4-6 4h-8c-4 0-6 2-6 4s2 4 6 4h8c4 0 6 2 6 4s-2 4-6 4h-8c-4 0-6-2-6-4" 
        stroke="white" stroke-width="3" stroke-linecap="round" fill="none"/>
  
  <!-- Letter N -->
  <path d="M42 20v24m0-24l8 16V20m8 0v24" 
        stroke="white" stroke-width="2.5" stroke-linecap="round"/>
</svg>